<svg xmlns="http://www.w3.org/2000/svg" viewBox="0 0 240 64" fill="none" role="img" aria-label="iogrid">
  <title>iogrid</title>
  <!-- mark, scaled to 48px height, baseline-aligned with wordmark -->
  <g transform="translate(0, 8)">
    <g stroke="#4257F5" stroke-width="2" stroke-linecap="round">
      <line x1="24" y1="6"    x2="38.3" y2="14.25" />
      <line x1="38.3" y1="14.25" x2="38.3" y2="30.75" />
      <line x1="38.3" y1="30.75" x2="24"    y2="39" />
      <line x1="24" y1="39"    x2="9.7" y2="30.75" />
      <line x1="9.7" y1="30.75" x2="9.7" y2="14.25" />
      <line x1="9.7" y1="14.25" x2="24"    y2="6" />
      <line x1="24" y1="6" x2="24" y2="39"        stroke-opacity="0.55" />
      <line x1="38.3" y1="14.25" x2="9.7" y2="30.75"  stroke-opacity="0.55" />
      <line x1="9.7" y1="14.25" x2="38.3" y2="30.75"  stroke-opacity="0.55" />
    </g>
    <g fill="#4257F5">
      <circle cx="24"   cy="6"    r="2.6" />
      <circle cx="38.3" cy="14.25" r="2.6" />
      <circle cx="38.3" cy="30.75" r="2.6" />
      <circle cx="24"   cy="39"   r="2.6" />
      <circle cx="9.7"  cy="30.75" r="2.6" />
      <circle cx="9.7"  cy="14.25" r="2.6" />
    </g>
    <circle cx="24" cy="22.5" r="3.4" fill="#2EC78B" />
  </g>
  <!-- wordmark "iogrid" -->
  <text x="60" y="44" font-family="Inter, system-ui, -apple-system, sans-serif"
        font-weight="800" font-size="36" letter-spacing="-0.02em" fill="#10174A">iogrid</text>
</svg>
