<svg xmlns="http://www.w3.org/2000/svg" viewBox="0 0 64 64" fill="none">
  <rect width="64" height="64" rx="14" fill="#10174A"/>
  <g stroke="#FFFFFF" stroke-width="2.5" stroke-linecap="round">
    <line x1="32" y1="14"    x2="48"   y2="23" />
    <line x1="48" y1="23"    x2="48"   y2="41" />
    <line x1="48" y1="41"    x2="32"   y2="50" />
    <line x1="32" y1="50"    x2="16"   y2="41" />
    <line x1="16" y1="41"    x2="16"   y2="23" />
    <line x1="16" y1="23"    x2="32"   y2="14" />
    <line x1="32" y1="14"    x2="32"   y2="50"  stroke-opacity="0.55" />
    <line x1="48" y1="23"    x2="16"   y2="41"  stroke-opacity="0.55" />
    <line x1="16" y1="23"    x2="48"   y2="41"  stroke-opacity="0.55" />
  </g>
  <g fill="#FFFFFF">
    <circle cx="32" cy="14" r="3" />
    <circle cx="48" cy="23" r="3" />
    <circle cx="48" cy="41" r="3" />
    <circle cx="32" cy="50" r="3" />
    <circle cx="16" cy="41" r="3" />
    <circle cx="16" cy="23" r="3" />
  </g>
  <circle cx="32" cy="32" r="4" fill="#2EC78B" />
</svg>
